<svg xmlns="http://www.w3.org/2000/svg" width="196.93" height="35" viewBox="0 0 196.93 35"><rect class="svg__rect" x="0" y="0" width="117.03" height="35" fill="#CC6B7A"/><rect class="svg__rect" x="115.03" y="0" width="81.9" height="35" fill="#C13B3A"/><path class="svg__text" d="M17.33 22L14.22 22L14.22 13.47L17.14 13.47Q18.59 13.47 19.34 14.05Q20.10 14.63 20.10 15.78L20.10 15.78Q20.10 16.36 19.78 16.83Q19.47 17.30 18.86 17.56L18.86 17.56Q19.55 17.75 19.93 18.26Q20.31 18.78 20.31 19.51L20.31 19.51Q20.31 20.71 19.53 21.36Q18.76 22 17.33 22L17.33 22ZM15.70 18.15L15.70 20.82L17.35 20.82Q18.04 20.82 18.44 20.47Q18.83 20.13 18.83 19.51L18.83 19.51Q18.83 18.18 17.47 18.15L17.47 18.15L15.70 18.15ZM15.70 14.66L15.70 17.06L17.15 17.06Q17.84 17.06 18.23 16.75Q18.62 16.43 18.62 15.86L18.62 15.86Q18.62 15.23 18.26 14.95Q17.90 14.66 17.14 14.66L17.14 14.66L15.70 14.66ZM24.64 19.16L24.64 19.16L24.64 13.47L26.12 13.47L26.12 19.18Q26.12 20.03 26.55 20.48Q26.98 20.93 27.83 20.93L27.83 20.93Q29.54 20.93 29.54 19.13L29.54 19.13L29.54 13.47L31.02 13.47L31.02 19.17Q31.02 20.53 30.15 21.32Q29.28 22.12 27.83 22.12L27.83 22.12Q26.36 22.12 25.50 21.33Q24.64 20.55 24.64 19.16ZM37.15 22L35.67 22L35.67 13.47L37.15 13.47L37.15 22ZM47.32 22L41.96 22L41.96 13.47L43.44 13.47L43.44 20.82L47.32 20.82L47.32 22ZM53.12 14.66L50.49 14.66L50.49 13.47L57.25 13.47L57.25 14.66L54.59 14.66L54.59 22L53.12 22L53.12 14.66ZM68.37 22L66.40 13.47L67.87 13.47L69.20 19.88L70.82 13.47L72.07 13.47L73.68 19.89L74.99 13.47L76.46 13.47L74.49 22L73.07 22L71.45 15.77L69.79 22L68.37 22ZM82.10 22L80.62 22L80.62 13.47L82.10 13.47L82.10 22ZM88.59 14.66L85.95 14.66L85.95 13.47L92.72 13.47L92.72 14.66L90.06 14.66L90.06 22L88.59 22L88.59 14.66ZM97.96 22L96.48 22L96.48 13.47L97.96 13.47L97.96 17.02L101.77 17.02L101.77 13.47L103.25 13.47L103.25 22L101.77 22L101.77 18.21L97.96 18.21L97.96 22Z" fill="#FFFFFF"/><path class="svg__text" d="M131.60 22L129.22 22L129.22 13.60L133.06 13.60Q134.20 13.60 135.04 13.98Q135.88 14.35 136.34 15.06Q136.79 15.76 136.79 16.71L136.79 16.71Q136.79 17.62 136.37 18.30Q135.94 18.98 135.15 19.36L135.15 19.36L136.96 22L134.42 22L132.89 19.77L131.60 19.77L131.60 22ZM131.60 15.47L131.60 17.93L132.92 17.93Q133.65 17.93 134.02 17.61Q134.39 17.29 134.39 16.71L134.39 16.71Q134.39 16.12 134.02 15.79Q133.65 15.47 132.92 15.47L132.92 15.47L131.60 15.47ZM148.33 22L141.58 22L141.58 13.60L148.17 13.60L148.17 15.44L143.94 15.44L143.94 16.85L147.67 16.85L147.67 18.63L143.94 18.63L143.94 20.17L148.33 20.17L148.33 22ZM154.55 22L152.12 22L155.83 13.60L158.17 13.60L161.89 22L159.42 22L158.76 20.37L155.21 20.37L154.55 22ZM156.99 15.93L155.90 18.61L158.06 18.61L156.99 15.93ZM165.62 17.80L165.62 17.80Q165.62 16.54 166.21 15.54Q166.81 14.55 167.86 13.99Q168.92 13.43 170.23 13.43L170.23 13.43Q171.39 13.43 172.31 13.84Q173.23 14.25 173.85 15.02L173.85 15.02L172.34 16.39Q171.52 15.40 170.36 15.40L170.36 15.40Q169.67 15.40 169.14 15.70Q168.60 16 168.31 16.54Q168.01 17.09 168.01 17.80L168.01 17.80Q168.01 18.51 168.31 19.05Q168.60 19.60 169.14 19.90Q169.67 20.20 170.36 20.20L170.36 20.20Q171.52 20.20 172.34 19.22L172.34 19.22L173.85 20.58Q173.24 21.35 172.31 21.76Q171.39 22.17 170.23 22.17L170.23 22.17Q168.92 22.17 167.86 21.61Q166.81 21.05 166.21 20.05Q165.62 19.06 165.62 17.80ZM180.18 15.48L177.59 15.48L177.59 13.60L185.12 13.60L185.12 15.48L182.55 15.48L182.55 22L180.18 22L180.18 15.48Z" fill="#FFFFFF" x="128.03"/></svg>