<svg xmlns="http://www.w3.org/2000/svg" width="316.1" height="35" viewBox="0 0 316.1 35"><rect class="svg__rect" x="0" y="0" width="159.91" height="35" fill="#005384"/><rect class="svg__rect" x="157.91" y="0" width="158.19" height="35" fill="#5593C7"/><path class="svg__text" d="M16.67 22L14.22 22L14.22 13.47L16.74 13.47Q17.87 13.47 18.74 13.97Q19.62 14.48 20.10 15.40Q20.58 16.33 20.58 17.52L20.58 17.52L20.58 17.95Q20.58 19.16 20.10 20.08Q19.61 21.00 18.72 21.50Q17.83 22 16.67 22L16.67 22ZM15.70 14.66L15.70 20.82L16.67 20.82Q17.83 20.82 18.46 20.09Q19.08 19.36 19.09 17.99L19.09 17.99L19.09 17.52Q19.09 16.13 18.49 15.40Q17.89 14.66 16.74 14.66L16.74 14.66L15.70 14.66ZM30.62 22L25.05 22L25.05 13.47L30.58 13.47L30.58 14.66L26.53 14.66L26.53 17.02L30.03 17.02L30.03 18.19L26.53 18.19L26.53 20.82L30.62 20.82L30.62 22ZM34.39 19.42L34.39 19.42L35.87 19.42Q35.87 20.15 36.35 20.55Q36.83 20.95 37.73 20.95L37.73 20.95Q38.50 20.95 38.89 20.63Q39.28 20.32 39.28 19.80L39.28 19.80Q39.28 19.24 38.88 18.94Q38.49 18.63 37.46 18.32Q36.42 18.01 35.81 17.63L35.81 17.63Q34.65 16.90 34.65 15.72L34.65 15.72Q34.65 14.69 35.49 14.02Q36.33 13.35 37.67 13.35L37.67 13.35Q38.56 13.35 39.26 13.68Q39.96 14.01 40.36 14.61Q40.75 15.22 40.75 15.96L40.75 15.96L39.28 15.96Q39.28 15.29 38.86 14.91Q38.44 14.54 37.66 14.54L37.66 14.54Q36.93 14.54 36.53 14.85Q36.13 15.16 36.13 15.71L36.13 15.71Q36.13 16.18 36.56 16.50Q37.00 16.81 37.99 17.10Q38.99 17.40 39.59 17.78Q40.20 18.16 40.48 18.65Q40.76 19.13 40.76 19.79L40.76 19.79Q40.76 20.86 39.94 21.49Q39.13 22.12 37.73 22.12L37.73 22.12Q36.80 22.12 36.02 21.77Q35.25 21.43 34.82 20.83Q34.39 20.22 34.39 19.42ZM46.61 22L45.14 22L45.14 13.47L46.61 13.47L46.61 22ZM51.18 18.13L51.18 18.13L51.18 17.46Q51.18 15.53 52.10 14.44Q53.03 13.35 54.69 13.35L54.69 13.35Q56.11 13.35 56.95 14.05Q57.79 14.76 57.96 16.08L57.96 16.08L56.50 16.08Q56.26 14.54 54.72 14.54L54.72 14.54Q53.72 14.54 53.20 15.26Q52.68 15.98 52.67 17.37L52.67 17.37L52.67 18.02Q52.67 19.40 53.25 20.17Q53.83 20.93 54.87 20.93L54.87 20.93Q56.01 20.93 56.49 20.42L56.49 20.42L56.49 18.75L54.73 18.75L54.73 17.62L57.96 17.62L57.96 20.89Q57.50 21.50 56.68 21.81Q55.86 22.12 54.82 22.12L54.82 22.12Q53.74 22.12 52.92 21.63Q52.09 21.14 51.64 20.24Q51.20 19.33 51.18 18.13ZM64.06 22L62.58 22L62.58 13.47L64.06 13.47L67.88 19.54L67.88 13.47L69.35 13.47L69.35 22L67.87 22L64.06 15.95L64.06 22ZM79.67 22L74.09 22L74.09 13.47L79.63 13.47L79.63 14.66L75.57 14.66L75.57 17.02L79.07 17.02L79.07 18.19L75.57 18.19L75.57 20.82L79.67 20.82L79.67 22ZM86.32 22L83.86 22L83.86 13.47L86.38 13.47Q87.51 13.47 88.39 13.97Q89.26 14.48 89.74 15.40Q90.22 16.33 90.22 17.52L90.22 17.52L90.22 17.95Q90.22 19.16 89.74 20.08Q89.26 21.00 88.36 21.50Q87.47 22 86.32 22L86.32 22ZM85.34 14.66L85.34 20.82L86.31 20.82Q87.48 20.82 88.10 20.09Q88.72 19.36 88.74 17.99L88.74 17.99L88.74 17.52Q88.74 16.13 88.13 15.40Q87.53 14.66 86.38 14.66L86.38 14.66L85.34 14.66ZM100.53 19.16L100.53 19.16L100.53 13.47L102.01 13.47L102.01 19.18Q102.01 20.03 102.44 20.48Q102.88 20.93 103.72 20.93L103.72 20.93Q105.43 20.93 105.43 19.13L105.43 19.13L105.43 13.47L106.91 13.47L106.91 19.17Q106.91 20.53 106.04 21.32Q105.17 22.12 103.72 22.12L103.72 22.12Q102.25 22.12 101.39 21.33Q100.53 20.55 100.53 19.16ZM111.04 19.42L111.04 19.42L112.53 19.42Q112.53 20.15 113.01 20.55Q113.49 20.95 114.38 20.95L114.38 20.95Q115.16 20.95 115.55 20.63Q115.94 20.32 115.94 19.80L115.94 19.80Q115.94 19.24 115.54 18.94Q115.14 18.63 114.11 18.32Q113.08 18.01 112.47 17.63L112.47 17.63Q111.31 16.90 111.31 15.72L111.31 15.72Q111.31 14.69 112.15 14.02Q112.99 13.35 114.33 13.35L114.33 13.35Q115.22 13.35 115.92 13.68Q116.62 14.01 117.01 14.61Q117.41 15.22 117.41 15.96L117.41 15.96L115.94 15.96Q115.94 15.29 115.52 14.91Q115.10 14.54 114.32 14.54L114.32 14.54Q113.59 14.54 113.19 14.85Q112.79 15.16 112.79 15.71L112.79 15.71Q112.79 16.18 113.22 16.50Q113.66 16.81 114.65 17.10Q115.65 17.40 116.25 17.78Q116.86 18.16 117.14 18.65Q117.42 19.13 117.42 19.79L117.42 19.79Q117.42 20.86 116.60 21.49Q115.78 22.12 114.38 22.12L114.38 22.12Q113.46 22.12 112.68 21.77Q111.90 21.43 111.47 20.83Q111.04 20.22 111.04 19.42ZM123.27 22L121.80 22L121.80 13.47L123.27 13.47L123.27 22ZM129.56 22L128.08 22L128.08 13.47L129.56 13.47L133.38 19.54L133.38 13.47L134.85 13.47L134.85 22L133.37 22L129.56 15.95L129.56 22ZM139.34 18.13L139.34 18.13L139.34 17.46Q139.34 15.53 140.27 14.44Q141.20 13.35 142.85 13.35L142.85 13.35Q144.28 13.35 145.12 14.05Q145.95 14.76 146.12 16.08L146.12 16.08L144.67 16.08Q144.42 14.54 142.88 14.54L142.88 14.54Q141.89 14.54 141.37 15.26Q140.85 15.98 140.83 17.37L140.83 17.37L140.83 18.02Q140.83 19.40 141.42 20.17Q142.00 20.93 143.04 20.93L143.04 20.93Q144.17 20.93 144.65 20.42L144.65 20.42L144.65 18.75L142.89 18.75L142.89 17.62L146.13 17.62L146.13 20.89Q145.67 21.50 144.85 21.81Q144.03 22.12 142.98 22.12L142.98 22.12Q141.91 22.12 141.08 21.63Q140.26 21.14 139.81 20.24Q139.36 19.33 139.34 18.13Z" fill="#FFFFFF"/><path class="svg__text" d="M173.89 15.48L171.31 15.48L171.31 13.60L178.83 13.60L178.83 15.48L176.26 15.48L176.26 22L173.89 22L173.89 15.48ZM184.62 22L182.19 22L185.90 13.60L188.25 13.60L191.96 22L189.49 22L188.83 20.37L185.28 20.37L184.62 22ZM187.06 15.93L185.97 18.61L188.13 18.61L187.06 15.93ZM198.49 22L196.12 22L196.12 13.60L198.49 13.60L198.49 22ZM210.05 22L203.67 22L203.67 13.60L206.05 13.60L206.05 20.11L210.05 20.11L210.05 22ZM216.55 22L213.83 13.60L216.28 13.60L217.97 18.96L219.74 13.60L221.93 13.60L223.62 19.01L225.38 13.60L227.65 13.60L224.93 22L222.38 22L220.78 16.89L219.10 22L216.55 22ZM234.54 22L232.16 22L232.16 13.60L234.54 13.60L234.54 22ZM242.05 22L239.72 22L239.72 13.60L241.67 13.60L245.38 18.07L245.38 13.60L247.71 13.60L247.71 22L245.76 22L242.05 17.52L242.05 22ZM256.84 22L252.87 22L252.87 13.60L256.84 13.60Q258.22 13.60 259.29 14.12Q260.36 14.63 260.95 15.58Q261.54 16.53 261.54 17.80L261.54 17.80Q261.54 19.07 260.95 20.02Q260.36 20.97 259.29 21.48Q258.22 22 256.84 22L256.84 22ZM255.25 15.50L255.25 20.10L256.75 20.10Q257.83 20.10 258.48 19.49Q259.13 18.88 259.13 17.80L259.13 17.80Q259.13 16.72 258.48 16.11Q257.83 15.50 256.75 15.50L256.75 15.50L255.25 15.50ZM272.81 17.80L272.81 17.80Q272.81 16.54 273.41 15.54Q274.00 14.55 275.06 13.99Q276.11 13.43 277.43 13.43L277.43 13.43Q278.58 13.43 279.50 13.84Q280.43 14.25 281.04 15.02L281.04 15.02L279.53 16.39Q278.72 15.40 277.55 15.40L277.55 15.40Q276.86 15.40 276.33 15.70Q275.80 16 275.50 16.54Q275.21 17.09 275.21 17.80L275.21 17.80Q275.21 18.51 275.50 19.05Q275.80 19.60 276.33 19.90Q276.86 20.20 277.55 20.20L277.55 20.20Q278.72 20.20 279.53 19.22L279.53 19.22L281.04 20.58Q280.43 21.35 279.51 21.76Q278.58 22.17 277.43 22.17L277.43 22.17Q276.11 22.17 275.06 21.61Q274.00 21.05 273.41 20.05Q272.81 19.06 272.81 17.80ZM284.99 21.24L284.99 21.24L285.77 19.49Q286.33 19.86 287.08 20.09Q287.82 20.32 288.54 20.32L288.54 20.32Q289.91 20.32 289.91 19.64L289.91 19.64Q289.91 19.28 289.52 19.11Q289.13 18.93 288.27 18.74L288.27 18.74Q287.32 18.53 286.68 18.30Q286.05 18.06 285.59 17.55Q285.14 17.03 285.14 16.16L285.14 16.16Q285.14 15.39 285.56 14.77Q285.97 14.15 286.81 13.79Q287.64 13.43 288.85 13.43L288.85 13.43Q289.68 13.43 290.48 13.62Q291.29 13.80 291.90 14.17L291.90 14.17L291.17 15.93Q289.97 15.28 288.84 15.28L288.84 15.28Q288.13 15.28 287.81 15.49Q287.49 15.70 287.49 16.04L287.49 16.04Q287.49 16.37 287.87 16.54Q288.25 16.71 289.10 16.89L289.10 16.89Q290.06 17.10 290.69 17.33Q291.32 17.56 291.79 18.07Q292.25 18.58 292.25 19.46L292.25 19.46Q292.25 20.21 291.83 20.83Q291.41 21.44 290.57 21.80Q289.73 22.17 288.53 22.17L288.53 22.17Q287.51 22.17 286.55 21.92Q285.59 21.67 284.99 21.24ZM296.24 21.24L296.24 21.24L297.02 19.49Q297.58 19.86 298.33 20.09Q299.07 20.32 299.79 20.32L299.79 20.32Q301.16 20.32 301.16 19.64L301.16 19.64Q301.16 19.28 300.77 19.11Q300.38 18.93 299.52 18.74L299.52 18.74Q298.57 18.53 297.93 18.30Q297.30 18.06 296.84 17.55Q296.39 17.03 296.39 16.16L296.39 16.16Q296.39 15.39 296.81 14.77Q297.22 14.15 298.06 13.79Q298.89 13.43 300.10 13.43L300.10 13.43Q300.93 13.43 301.73 13.62Q302.54 13.80 303.15 14.17L303.15 14.17L302.42 15.93Q301.22 15.28 300.09 15.28L300.09 15.28Q299.38 15.28 299.06 15.49Q298.74 15.70 298.74 16.04L298.74 16.04Q298.74 16.37 299.12 16.54Q299.50 16.71 300.35 16.89L300.35 16.89Q301.31 17.10 301.94 17.33Q302.57 17.56 303.04 18.07Q303.50 18.58 303.50 19.46L303.50 19.46Q303.50 20.21 303.08 20.83Q302.66 21.44 301.82 21.80Q300.98 22.17 299.78 22.17L299.78 22.17Q298.76 22.17 297.80 21.92Q296.84 21.67 296.24 21.24Z" fill="#FFFFFF" x="170.91"/></svg>