<svg xmlns="http://www.w3.org/2000/svg" width="278.69999999999993" height="35" viewBox="0 0 278.69999999999993 35"><rect class="svg__rect" x="0" y="0" width="209.42" height="35" fill="#5A31AC"/><rect class="svg__rect" x="207.42" y="0" width="71.27999999999997" height="35" fill="#8D70C6"/><path class="svg__text" d="M15.69 22L14.22 22L14.22 13.47L16.14 13.47L18.60 20.01L21.06 13.47L22.97 13.47L22.97 22L21.49 22L21.49 19.19L21.64 15.43L19.12 22L18.06 22L15.55 15.43L15.69 19.19L15.69 22ZM28.49 22L26.95 22L30.17 13.47L31.50 13.47L34.73 22L33.18 22L32.49 20.01L29.18 20.01L28.49 22ZM30.83 15.28L29.60 18.82L32.07 18.82L30.83 15.28ZM41.14 22L38.69 22L38.69 13.47L41.21 13.47Q42.34 13.47 43.21 13.97Q44.09 14.48 44.57 15.40Q45.05 16.33 45.05 17.52L45.05 17.52L45.05 17.95Q45.05 19.16 44.57 20.08Q44.08 21.00 43.19 21.50Q42.30 22 41.14 22L41.14 22ZM40.17 14.66L40.17 20.82L41.14 20.82Q42.30 20.82 42.93 20.09Q43.55 19.36 43.56 17.99L43.56 17.99L43.56 17.52Q43.56 16.13 42.96 15.40Q42.35 14.66 41.21 14.66L41.21 14.66L40.17 14.66ZM55.09 22L49.51 22L49.51 13.47L55.05 13.47L55.05 14.66L51.00 14.66L51.00 17.02L54.50 17.02L54.50 18.19L51.00 18.19L51.00 20.82L55.09 20.82L55.09 22ZM66.75 22L65.26 22L65.26 13.47L70.68 13.47L70.68 14.66L66.75 14.66L66.75 17.20L70.18 17.20L70.18 18.38L66.75 18.38L66.75 22ZM74.57 18.00L74.57 18.00L74.57 17.52Q74.57 16.28 75.02 15.32Q75.46 14.37 76.27 13.86Q77.07 13.35 78.11 13.35Q79.16 13.35 79.96 13.85Q80.77 14.35 81.21 15.29Q81.65 16.23 81.65 17.48L81.65 17.48L81.65 17.96Q81.65 19.21 81.22 20.16Q80.79 21.10 79.98 21.61Q79.17 22.12 78.13 22.12L78.13 22.12Q77.09 22.12 76.28 21.61Q75.47 21.10 75.02 20.17Q74.58 19.23 74.57 18.00ZM76.06 17.46L76.06 17.96Q76.06 19.36 76.60 20.13Q77.15 20.90 78.13 20.90L78.13 20.90Q79.11 20.90 79.64 20.15Q80.17 19.40 80.17 17.96L80.17 17.96L80.17 17.51Q80.17 16.09 79.63 15.34Q79.10 14.58 78.11 14.58L78.11 14.58Q77.15 14.58 76.61 15.33Q76.07 16.09 76.06 17.46L76.06 17.46ZM87.60 22L86.12 22L86.12 13.47L89.12 13.47Q90.59 13.47 91.40 14.13Q92.20 14.79 92.20 16.05L92.20 16.05Q92.20 16.90 91.79 17.48Q91.37 18.06 90.64 18.37L90.64 18.37L92.55 21.92L92.55 22L90.96 22L89.25 18.71L87.60 18.71L87.60 22ZM87.60 14.66L87.60 17.52L89.12 17.52Q89.87 17.52 90.30 17.15Q90.72 16.77 90.72 16.11L90.72 16.11Q90.72 15.43 90.33 15.05Q89.94 14.68 89.16 14.66L89.16 14.66L87.60 14.66ZM105.68 22L102.57 22L102.57 13.47L105.49 13.47Q106.94 13.47 107.70 14.05Q108.45 14.63 108.45 15.78L108.45 15.78Q108.45 16.36 108.14 16.83Q107.82 17.30 107.21 17.56L107.21 17.56Q107.90 17.75 108.28 18.26Q108.66 18.78 108.66 19.51L108.66 19.51Q108.66 20.71 107.89 21.36Q107.12 22 105.68 22L105.68 22ZM104.05 18.15L104.05 20.82L105.70 20.82Q106.40 20.82 106.79 20.47Q107.18 20.13 107.18 19.51L107.18 19.51Q107.18 18.18 105.82 18.15L105.82 18.15L104.05 18.15ZM104.05 14.66L104.05 17.06L105.51 17.06Q106.20 17.06 106.59 16.75Q106.98 16.43 106.98 15.86L106.98 15.86Q106.98 15.23 106.62 14.95Q106.26 14.66 105.49 14.66L105.49 14.66L104.05 14.66ZM112.86 18.00L112.86 18.00L112.86 17.52Q112.86 16.28 113.30 15.32Q113.74 14.37 114.55 13.86Q115.36 13.35 116.40 13.35Q117.44 13.35 118.25 13.85Q119.05 14.35 119.49 15.29Q119.93 16.23 119.94 17.48L119.94 17.48L119.94 17.96Q119.94 19.21 119.50 20.16Q119.07 21.10 118.27 21.61Q117.46 22.12 116.41 22.12L116.41 22.12Q115.37 22.12 114.56 21.61Q113.75 21.10 113.31 20.17Q112.87 19.23 112.86 18.00ZM114.34 17.46L114.34 17.96Q114.34 19.36 114.89 20.13Q115.44 20.90 116.41 20.90L116.41 20.90Q117.39 20.90 117.93 20.15Q118.46 19.40 118.46 17.96L118.46 17.96L118.46 17.51Q118.46 16.09 117.92 15.34Q117.38 14.58 116.40 14.58L116.40 14.58Q115.44 14.58 114.90 15.33Q114.35 16.09 114.34 17.46L114.34 17.46ZM126.08 14.66L123.45 14.66L123.45 13.47L130.22 13.47L130.22 14.66L127.56 14.66L127.56 22L126.08 22L126.08 14.66ZM133.54 19.42L133.54 19.42L135.02 19.42Q135.02 20.15 135.50 20.55Q135.98 20.95 136.88 20.95L136.88 20.95Q137.65 20.95 138.04 20.63Q138.43 20.32 138.43 19.80L138.43 19.80Q138.43 19.24 138.03 18.94Q137.64 18.63 136.61 18.32Q135.58 18.01 134.97 17.63L134.97 17.63Q133.80 16.90 133.80 15.72L133.80 15.72Q133.80 14.69 134.64 14.02Q135.48 13.35 136.82 13.35L136.82 13.35Q137.72 13.35 138.41 13.68Q139.11 14.01 139.51 14.61Q139.91 15.22 139.91 15.96L139.91 15.96L138.43 15.96Q138.43 15.29 138.01 14.91Q137.59 14.54 136.81 14.54L136.81 14.54Q136.09 14.54 135.68 14.85Q135.28 15.16 135.28 15.71L135.28 15.71Q135.28 16.18 135.72 16.50Q136.15 16.81 137.15 17.10Q138.14 17.40 138.75 17.78Q139.35 18.16 139.63 18.65Q139.91 19.13 139.91 19.79L139.91 19.79Q139.91 20.86 139.10 21.49Q138.28 22.12 136.88 22.12L136.88 22.12Q135.95 22.12 135.18 21.77Q134.40 21.43 133.97 20.83Q133.54 20.22 133.54 19.42ZM150.04 19.16L150.04 19.16L150.04 13.47L151.52 13.47L151.52 19.18Q151.52 20.03 151.95 20.48Q152.39 20.93 153.23 20.93L153.23 20.93Q154.94 20.93 154.94 19.13L154.94 19.13L154.94 13.47L156.42 13.47L156.42 19.17Q156.42 20.53 155.55 21.32Q154.68 22.12 153.23 22.12L153.23 22.12Q151.77 22.12 150.90 21.33Q150.04 20.55 150.04 19.16ZM160.56 19.42L160.56 19.42L162.04 19.42Q162.04 20.15 162.52 20.55Q163.00 20.95 163.89 20.95L163.89 20.95Q164.67 20.95 165.06 20.63Q165.45 20.32 165.45 19.80L165.45 19.80Q165.45 19.24 165.05 18.94Q164.66 18.63 163.63 18.32Q162.59 18.01 161.98 17.63L161.98 17.63Q160.82 16.90 160.82 15.72L160.82 15.72Q160.82 14.69 161.66 14.02Q162.50 13.35 163.84 13.35L163.84 13.35Q164.73 13.35 165.43 13.68Q166.13 14.01 166.53 14.61Q166.92 15.22 166.92 15.96L166.92 15.96L165.45 15.96Q165.45 15.29 165.03 14.91Q164.61 14.54 163.83 14.54L163.83 14.54Q163.10 14.54 162.70 14.85Q162.30 15.16 162.30 15.71L162.30 15.71Q162.30 16.18 162.73 16.50Q163.17 16.81 164.16 17.10Q165.16 17.40 165.76 17.78Q166.37 18.16 166.65 18.65Q166.93 19.13 166.93 19.79L166.93 19.79Q166.93 20.86 166.11 21.49Q165.30 22.12 163.89 22.12L163.89 22.12Q162.97 22.12 162.19 21.77Q161.42 21.43 160.99 20.83Q160.56 20.22 160.56 19.42ZM172.78 22L171.31 22L171.31 13.47L172.78 13.47L172.78 22ZM179.08 22L177.59 22L177.59 13.47L179.08 13.47L182.89 19.54L182.89 13.47L184.36 13.47L184.36 22L182.88 22L179.08 15.95L179.08 22ZM188.86 18.13L188.86 18.13L188.86 17.46Q188.86 15.53 189.78 14.44Q190.71 13.35 192.37 13.35L192.37 13.35Q193.79 13.35 194.63 14.05Q195.47 14.76 195.64 16.08L195.64 16.08L194.18 16.08Q193.94 14.54 192.39 14.54L192.39 14.54Q191.40 14.54 190.88 15.26Q190.36 15.98 190.34 17.37L190.34 17.37L190.34 18.02Q190.34 19.40 190.93 20.17Q191.51 20.93 192.55 20.93L192.55 20.93Q193.68 20.93 194.16 20.42L194.16 20.42L194.16 18.75L192.41 18.75L192.41 17.62L195.64 17.62L195.64 20.89Q195.18 21.50 194.36 21.81Q193.54 22.12 192.49 22.12L192.49 22.12Q191.42 22.12 190.60 21.63Q189.77 21.14 189.32 20.24Q188.87 19.33 188.86 18.13Z" fill="#FFFFFF"/><path class="svg__text" d="M223.99 22L221.61 22L221.61 13.60L225.45 13.60Q226.59 13.60 227.43 13.98Q228.27 14.35 228.73 15.06Q229.18 15.76 229.18 16.71L229.18 16.71Q229.18 17.62 228.76 18.30Q228.33 18.98 227.54 19.36L227.54 19.36L229.35 22L226.81 22L225.28 19.77L223.99 19.77L223.99 22ZM223.99 15.47L223.99 17.93L225.31 17.93Q226.04 17.93 226.41 17.61Q226.78 17.29 226.78 16.71L226.78 16.71Q226.78 16.12 226.41 15.79Q226.04 15.47 225.31 15.47L225.31 15.47L223.99 15.47ZM235.39 22L232.96 22L236.67 13.60L239.02 13.60L242.73 22L240.26 22L239.60 20.37L236.05 20.37L235.39 22ZM237.83 15.93L236.74 18.61L238.90 18.61L237.83 15.93ZM246.30 21.24L246.30 21.24L247.08 19.49Q247.64 19.86 248.39 20.09Q249.13 20.32 249.85 20.32L249.85 20.32Q251.22 20.32 251.22 19.64L251.22 19.64Q251.22 19.28 250.83 19.11Q250.44 18.93 249.57 18.74L249.57 18.74Q248.63 18.53 247.99 18.30Q247.35 18.06 246.90 17.55Q246.45 17.03 246.45 16.16L246.45 16.16Q246.45 15.39 246.86 14.77Q247.28 14.15 248.12 13.79Q248.95 13.43 250.16 13.43L250.16 13.43Q250.99 13.43 251.79 13.62Q252.60 13.80 253.21 14.17L253.21 14.17L252.48 15.93Q251.28 15.28 250.15 15.28L250.15 15.28Q249.44 15.28 249.12 15.49Q248.80 15.70 248.80 16.04L248.80 16.04Q248.80 16.37 249.18 16.54Q249.56 16.71 250.41 16.89L250.41 16.89Q251.37 17.10 252.00 17.33Q252.63 17.56 253.10 18.07Q253.56 18.58 253.56 19.46L253.56 19.46Q253.56 20.21 253.14 20.83Q252.72 21.44 251.88 21.80Q251.04 22.17 249.84 22.17L249.84 22.17Q248.82 22.17 247.86 21.92Q246.90 21.67 246.30 21.24ZM259.55 22L257.13 22L260.84 13.60L263.18 13.60L266.89 22L264.43 22L263.77 20.37L260.22 20.37L259.55 22ZM261.99 15.93L260.91 18.61L263.07 18.61L261.99 15.93Z" fill="#FFFFFF" x="220.42"/></svg>