<svg xmlns="http://www.w3.org/2000/svg" width="237.48000000000002" height="35" viewBox="0 0 237.48000000000002 35"><rect class="svg__rect" x="0" y="0" width="108.05" height="35" fill="#5D9741"/><rect class="svg__rect" x="106.05" y="0" width="131.43" height="35" fill="#8FC965"/><path class="svg__text" d="M13.78 19.42L13.78 19.42L15.27 19.42Q15.27 20.15 15.75 20.55Q16.23 20.95 17.12 20.95L17.12 20.95Q17.90 20.95 18.29 20.63Q18.68 20.32 18.68 19.80L18.68 19.80Q18.68 19.24 18.28 18.94Q17.89 18.63 16.85 18.32Q15.82 18.01 15.21 17.63L15.21 17.63Q14.05 16.90 14.05 15.72L14.05 15.72Q14.05 14.69 14.89 14.02Q15.73 13.35 17.07 13.35L17.07 13.35Q17.96 13.35 18.66 13.68Q19.36 14.01 19.75 14.61Q20.15 15.22 20.15 15.96L20.15 15.96L18.68 15.96Q18.68 15.29 18.26 14.91Q17.84 14.54 17.06 14.54L17.06 14.54Q16.33 14.54 15.93 14.85Q15.53 15.16 15.53 15.71L15.53 15.71Q15.53 16.18 15.96 16.50Q16.40 16.81 17.39 17.10Q18.39 17.40 18.99 17.78Q19.60 18.16 19.88 18.65Q20.16 19.13 20.16 19.79L20.16 19.79Q20.16 20.86 19.34 21.49Q18.52 22.12 17.12 22.12L17.12 22.12Q16.20 22.12 15.42 21.77Q14.64 21.43 14.21 20.83Q13.78 20.22 13.78 19.42ZM24.31 19.16L24.31 19.16L24.31 13.47L25.79 13.47L25.79 19.18Q25.79 20.03 26.22 20.48Q26.66 20.93 27.50 20.93L27.50 20.93Q29.21 20.93 29.21 19.13L29.21 19.13L29.21 13.47L30.69 13.47L30.69 19.17Q30.69 20.53 29.82 21.32Q28.95 22.12 27.50 22.12L27.50 22.12Q26.04 22.12 25.17 21.33Q24.31 20.55 24.31 19.16ZM36.74 22L35.26 22L35.26 13.47L38.52 13.47Q39.95 13.47 40.79 14.21Q41.63 14.96 41.63 16.18L41.63 16.18Q41.63 17.44 40.81 18.13Q39.99 18.83 38.50 18.83L38.50 18.83L36.74 18.83L36.74 22ZM36.74 14.66L36.74 17.64L38.52 17.64Q39.31 17.64 39.73 17.27Q40.14 16.90 40.14 16.19L40.14 16.19Q40.14 15.50 39.72 15.09Q39.30 14.68 38.56 14.66L38.56 14.66L36.74 14.66ZM47.40 22L45.92 22L45.92 13.47L49.18 13.47Q50.61 13.47 51.45 14.21Q52.29 14.96 52.29 16.18L52.29 16.18Q52.29 17.44 51.47 18.13Q50.64 18.83 49.16 18.83L49.16 18.83L47.40 18.83L47.40 22ZM47.40 14.66L47.40 17.64L49.18 17.64Q49.97 17.64 50.39 17.27Q50.80 16.90 50.80 16.19L50.80 16.19Q50.80 15.50 50.38 15.09Q49.96 14.68 49.22 14.66L49.22 14.66L47.40 14.66ZM56.31 18.00L56.31 18.00L56.31 17.52Q56.31 16.28 56.75 15.32Q57.19 14.37 58.00 13.86Q58.80 13.35 59.84 13.35Q60.89 13.35 61.69 13.85Q62.50 14.35 62.94 15.29Q63.38 16.23 63.38 17.48L63.38 17.48L63.38 17.96Q63.38 19.21 62.95 20.16Q62.52 21.10 61.71 21.61Q60.90 22.12 59.86 22.12L59.86 22.12Q58.82 22.12 58.01 21.61Q57.20 21.10 56.75 20.17Q56.31 19.23 56.31 18.00ZM57.79 17.46L57.79 17.96Q57.79 19.36 58.34 20.13Q58.88 20.90 59.86 20.90L59.86 20.90Q60.84 20.90 61.37 20.15Q61.90 19.40 61.90 17.96L61.90 17.96L61.90 17.51Q61.90 16.09 61.36 15.34Q60.83 14.58 59.84 14.58L59.84 14.58Q58.88 14.58 58.34 15.33Q57.80 16.09 57.79 17.46L57.79 17.46ZM69.33 22L67.85 22L67.85 13.47L70.85 13.47Q72.32 13.47 73.13 14.13Q73.93 14.79 73.93 16.05L73.93 16.05Q73.93 16.90 73.52 17.48Q73.10 18.06 72.37 18.37L72.37 18.37L74.28 21.92L74.28 22L72.69 22L70.98 18.71L69.33 18.71L69.33 22ZM69.33 14.66L69.33 17.52L70.85 17.52Q71.60 17.52 72.03 17.15Q72.45 16.77 72.45 16.11L72.45 16.11Q72.45 15.43 72.06 15.05Q71.67 14.68 70.89 14.66L70.89 14.66L69.33 14.66ZM80.01 14.66L77.37 14.66L77.37 13.47L84.14 13.47L84.14 14.66L81.48 14.66L81.48 22L80.01 22L80.01 14.66ZM87.46 19.42L87.46 19.42L88.94 19.42Q88.94 20.15 89.42 20.55Q89.90 20.95 90.80 20.95L90.80 20.95Q91.57 20.95 91.96 20.63Q92.35 20.32 92.35 19.80L92.35 19.80Q92.35 19.24 91.96 18.94Q91.56 18.63 90.53 18.32Q89.50 18.01 88.89 17.63L88.89 17.63Q87.72 16.90 87.72 15.72L87.72 15.72Q87.72 14.69 88.56 14.02Q89.40 13.35 90.75 13.35L90.75 13.35Q91.64 13.35 92.33 13.68Q93.03 14.01 93.43 14.61Q93.83 15.22 93.83 15.96L93.83 15.96L92.35 15.96Q92.35 15.29 91.93 14.91Q91.51 14.54 90.73 14.54L90.73 14.54Q90.01 14.54 89.61 14.85Q89.21 15.16 89.21 15.71L89.21 15.71Q89.21 16.18 89.64 16.50Q90.07 16.81 91.07 17.10Q92.06 17.40 92.67 17.78Q93.27 18.16 93.55 18.65Q93.83 19.13 93.83 19.79L93.83 19.79Q93.83 20.86 93.02 21.49Q92.20 22.12 90.80 22.12L90.80 22.12Q89.87 22.12 89.10 21.77Q88.32 21.43 87.89 20.83Q87.46 20.22 87.46 19.42Z" fill="#FFFFFF"/><path class="svg__text" d="M122.44 22L120.24 22L120.24 13.60L122.19 13.60L125.15 18.45L128.03 13.60L129.98 13.60L130.01 22L127.83 22L127.80 17.55L125.64 21.17L124.59 21.17L122.44 17.67L122.44 22ZM136.59 22L134.16 22L137.87 13.60L140.21 13.60L143.93 22L141.46 22L140.80 20.37L137.25 20.37L136.59 22ZM139.02 15.93L137.94 18.61L140.10 18.61L139.02 15.93ZM150.46 22L148.08 22L148.08 13.60L151.93 13.60Q153.07 13.60 153.91 13.98Q154.74 14.35 155.20 15.06Q155.66 15.76 155.66 16.71L155.66 16.71Q155.66 17.62 155.23 18.30Q154.80 18.98 154.01 19.36L154.01 19.36L155.82 22L153.28 22L151.76 19.77L150.46 19.77L150.46 22ZM150.46 15.47L150.46 17.93L151.78 17.93Q152.51 17.93 152.88 17.61Q153.26 17.29 153.26 16.71L153.26 16.71Q153.26 16.12 152.88 15.79Q152.51 15.47 151.78 15.47L151.78 15.47L150.46 15.47ZM162.80 22L160.44 22L160.44 13.60L162.80 13.60L162.80 17.09L166.05 13.60L168.67 13.60L165.24 17.32L168.85 22L166.09 22L163.69 18.95L162.80 19.90L162.80 22ZM176.93 22L172.95 22L172.95 13.60L176.93 13.60Q178.31 13.60 179.38 14.12Q180.44 14.63 181.03 15.58Q181.62 16.53 181.62 17.80L181.62 17.80Q181.62 19.07 181.03 20.02Q180.44 20.97 179.38 21.48Q178.31 22 176.93 22L176.93 22ZM175.33 15.50L175.33 20.10L176.83 20.10Q177.91 20.10 178.57 19.49Q179.22 18.88 179.22 17.80L179.22 17.80Q179.22 16.72 178.57 16.11Q177.91 15.50 176.83 15.50L176.83 15.50L175.33 15.50ZM185.92 17.80L185.92 17.80Q185.92 16.55 186.53 15.55Q187.13 14.56 188.19 14.00Q189.26 13.43 190.59 13.43L190.59 13.43Q191.92 13.43 192.98 14.00Q194.04 14.56 194.65 15.55Q195.26 16.55 195.26 17.80L195.26 17.80Q195.26 19.05 194.65 20.04Q194.04 21.04 192.98 21.60Q191.92 22.17 190.59 22.17L190.59 22.17Q189.26 22.17 188.19 21.60Q187.13 21.04 186.53 20.04Q185.92 19.05 185.92 17.80ZM188.32 17.80L188.32 17.80Q188.32 18.51 188.62 19.05Q188.92 19.60 189.44 19.90Q189.95 20.20 190.59 20.20L190.59 20.20Q191.22 20.20 191.74 19.90Q192.26 19.60 192.55 19.05Q192.85 18.51 192.85 17.80L192.85 17.80Q192.85 17.09 192.55 16.54Q192.26 16 191.74 15.70Q191.22 15.40 190.59 15.40L190.59 15.40Q189.95 15.40 189.43 15.70Q188.92 16 188.62 16.54Q188.32 17.09 188.32 17.80ZM202.06 22L199.34 13.60L201.79 13.60L203.48 18.96L205.25 13.60L207.44 13.60L209.13 19.01L210.89 13.60L213.16 13.60L210.44 22L207.89 22L206.29 16.89L204.61 22L202.06 22ZM220.01 22L217.67 22L217.67 13.60L219.63 13.60L223.34 18.07L223.34 13.60L225.67 13.60L225.67 22L223.71 22L220.01 17.52L220.01 22Z" fill="#FFFFFF" x="119.05"/></svg>